<svg xmlns="http://www.w3.org/2000/svg" id="i-popaket-logo-text-white" viewBox="0 0 440.43 120.66">
    <g data-name="Layer 2">
        <g data-name="Layer 1" fill="#fff">
            <path
                d="M186.63 28.42a23.22 23.22 0 1020.72 20.72 23.22 23.22 0 00-20.72-20.72zM186 64.67a13.27 13.27 0 1111.48-11.84A13.28 13.28 0 01186 64.67zM236.88 28.22A21.32 21.32 0 00224 32.58v-4.36h-10v54.16h10V70.29a21.32 21.32 0 0012.9 4.36c12.21 0 22.1-10.4 22.1-23.22s-9.91-23.21-22.12-23.21zm0 36.48c-7 0-12.64-5.94-12.64-13.27s5.66-13.26 12.64-13.26 12.63 5.94 12.63 13.26-5.66 13.27-12.63 13.27zM132.23 28.22a21.31 21.31 0 00-12.89 4.36v-4.36h-10v54.16h10V70.29a21.31 21.31 0 0012.89 4.36c12.21 0 22.11-10.4 22.11-23.22s-9.9-23.21-22.11-23.21zm0 36.48c-7 0-12.63-5.94-12.63-13.27s5.65-13.26 12.63-13.26 12.63 5.94 12.63 13.26-5.65 13.27-12.63 13.27zM301 28.22v4.42a21.6 21.6 0 00-13.08-4.42c-12.31 0-22.3 10.4-22.3 23.21s10 23.22 22.3 23.22A21.6 21.6 0 00301 70.23v4.42h9.95V28.22zM287.91 64.7a13 13 0 01-12.74-13.27 12.75 12.75 0 1125.47 0 13 13 0 01-12.73 13.27zM358.04 74.72h-12.27l-9.93-16.63-4.86 4.8v8.89h-.06v2.94h-9.95V20.56h10.01v30.32l14.79-21.39h12.07l-14.53 22.17 14.73 23.06zM404 55.15h-31c1.09 5.6 6.7 9 12.66 9a12.34 12.34 0 009.8-4.35l6 7.53c-3.63 4.76-10.19 7.27-17.23 7.27-10.56 0-22.66-9.78-22.66-23.16S372 28.3 383.89 28.3c11.48 0 20.34 8.86 20.34 23.33 0 1.01-.15 2.43-.23 3.52zm-31.18-7.61h20.72c-.8-5.69-4.5-9.37-9.58-9.37a11.12 11.12 0 00-11.13 9.37zM440.43 72.33a15.68 15.68 0 01-8.94 2.39c-8.94 0-14.15-4.57-14.15-13.58V43.48h-6.65V32.61h6.65v-12h11v12h10.24v10.87h-10.26V61c0 3.24 1.76 5 4.72 5a7.46 7.46 0 004.44-1.41zM68.09 6.36A45.11 45.11 0 007.48 20.08c-.43.63-.83 1.29-1.23 2A45 45 0 000 41.91v8.78c9-6.1 19.65-10.56 29.47-11.94v-1.49a3.69 3.69 0 010-.58 4.49 4.49 0 012.22-3.34L34 32a3.53 3.53 0 013.53 0l12.32 7.14a4.52 4.52 0 012.26 3.92v1.46l5.06-2.92v-1.42a4.52 4.52 0 00-2.26-3.92l-2.51-1.45-.29-.16L42.3 29a1 1 0 010-1.76l1.28-.74a4.56 4.56 0 014.52 0l4 2.31 5.06 2.92 2.79 1.61a4.53 4.53 0 012.23 3.34 5.46 5.46 0 010 .58v13.67a4.53 4.53 0 01-2.27 3.92L48.1 61.69a4.51 4.51 0 01-4.52 0l-11.85-6.84a4.52 4.52 0 01-2.26-3.91v-3.23C14.42 53.5 2.85 64.16 0 76.56v44.1l16.3-8.83 3.22-1.74 49.75-26.92a45.07 45.07 0 0014.5-15c.39-.67.77-1.34 1.13-2A45.11 45.11 0 0068.09 6.36z">
            </path>
        </g>
    </g>
</svg>